<svg width="13" height="13" viewBox="0 0 13 13" fill="none" xmlns="http://www.w3.org/2000/svg">
<path d="M8.92653 8.35535H8.36237L8.16242 8.16253C8.86226 7.34843 9.28359 6.29153 9.28359 5.1418C9.28359 2.5781 7.20549 0.5 4.6418 0.5C2.0781 0.5 0 2.5781 0 5.1418C0 7.70549 2.0781 9.78359 4.6418 9.78359C5.79153 9.78359 6.84843 9.36226 7.66253 8.66242L7.85535 8.86237V9.42653L11.426 12.99L12.49 11.926L8.92653 8.35535V8.35535ZM4.6418 8.35535C2.86363 8.35535 1.42824 6.91996 1.42824 5.1418C1.42824 3.36363 2.86363 1.92824 4.6418 1.92824C6.41996 1.92824 7.85535 3.36363 7.85535 5.1418C7.85535 6.91996 6.41996 8.35535 4.6418 8.35535Z" fill="#1E2D37"/>
</svg>
